<svg version="1.1" xmlns="http://www.w3.org/2000/svg" xmlns:xlink="http://www.w3.org/1999/xlink" viewBox="0 0 172 172"><g fill="none" fill-rule="nonzero" stroke="none" stroke-width="1" stroke-linecap="butt" stroke-linejoin="miter" stroke-miterlimit="10" stroke-dasharray="" stroke-dashoffset="0" font-family="none" font-weight="none" font-size="none" text-anchor="none" style="mix-blend-mode: normal"><path d="M0,172v-172h172v172z" fill="none"></path><g fill="#5533ff"><path d="M156.01082,120.57023l-48.51082,-17.64017v-10.06557c8.03607,-5.21049 13.03805,-14.00192 13.41158,-23.57209l1.88145,-0.47031c5.57019,-1.39192 9.31669,-6.60809 8.85677,-12.33111c-0.45991,-5.72302 -4.99132,-10.27396 -10.71231,-10.75849v-12.35417l16.125,-3.22497v18.22166h5.375v-24.1875h-0.00295c0.00034,-0.02202 0.00295,-0.04355 0.00295,-0.06561c0.00299,-2.77521 -1.88636,-5.19499 -4.57945,-5.86513l-50.39161,-12.59799c-0.96292,-0.23982 -1.96997,-0.23982 -2.93289,0l-50.39161,12.598c-2.74347,0.68587 -4.64497,3.18189 -4.57773,6.009c0.06724,2.82711 2.08526,5.22991 4.85824,5.78457l16.64005,3.32798v12.35417c-5.72097,0.48455 -10.25236,5.03549 -10.71228,10.75849c-0.45991,5.72301 3.28657,10.93917 8.85674,12.3311l1.88145,0.47031c0.37353,9.57017 5.37551,18.36161 13.41158,23.5721v10.06557l-48.51049,17.64017c-6.36335,2.32914 -10.60019,8.37806 -10.61451,15.15426v30.90051h161.25v-30.90051c-0.01431,-6.7761 -4.25099,-12.82497 -10.61418,-15.15426zM51.0625,63.74543l-0.5518,-0.13793c-2.93656,-0.73238 -4.95089,-3.43184 -4.81698,-6.45539c0.1339,-3.02355 2.37898,-5.53437 5.36879,-6.00429zM115.5625,45.6875h-59.125v-11.2342l28.37688,5.67533c0.7826,0.15725 1.58865,0.15725 2.37125,0l28.37688,-5.67533zM126.3125,57.43006c0.00324,2.92298 -1.9867,5.47166 -4.8232,6.17744l-0.5518,0.13793v-12.59761c3.09146,0.48969 5.3695,3.15223 5.375,6.28223zM35.47684,24.77966c-0.3077,-0.06143 -0.53168,-0.328 -0.53915,-0.64169c-0.00747,-0.31368 0.20356,-0.59062 0.50798,-0.66663l50.39161,-12.59799c0.10685,-0.02657 0.21859,-0.02657 0.32544,0l50.39161,12.59799c0.30443,0.07601 0.51546,0.35295 0.50798,0.66663c-0.00747,0.31368 -0.23145,0.58026 -0.53915,0.64169l-50.39194,10.07829c-0.08662,0.01739 -0.17583,0.01739 -0.26245,0zM56.4375,68.08328v-17.02078h59.125v17.02078c0.01729,9.76973 -5.85973,18.58526 -14.88459,22.32689l-10.54332,4.39311c-2.64766,1.09491 -5.62152,1.09491 -8.26918,0l-10.54332,-4.39311c-9.02486,-3.74163 -14.90188,-12.55716 -14.88459,-22.32689zM86,118.25c1.41359,-0.01692 2.72729,0.72688 3.44008,1.94772c1.01055,1.68407 0.65336,3.85215 -0.84403,5.12302c-1.49739,1.27088 -3.6947,1.27088 -5.19209,0c-1.49739,-1.27088 -1.85459,-3.43896 -0.84403,-5.12302v0.00016c0.71272,-1.22093 2.02644,-1.9648 3.44008,-1.94788zM87.65328,113.02214c-1.09346,-0.19618 -2.2131,-0.19618 -3.30656,0l-14.47172,-9.64787v-7.74395l9.92295,4.13459c3.97166,1.64207 8.43243,1.64207 12.4041,0l9.92295,-4.13459v7.74395zM72.91902,161.25h-62.16902v-25.52551c0.0095,-4.51745 2.83409,-8.55006 7.07634,-10.10273l4.11638,-1.49689l52.6952,25.09297zM75.43421,143.64387l-46.40301,-22.09662l23.92693,-8.70071l24.75389,14.85236zM77.95062,117.43247c-0.62654,1.04398 -1.04446,2.19966 -1.23056,3.40291l-17.25708,-10.35427l7.3652,-2.67823l12.21907,8.14599c-0.41254,0.45794 -0.7798,0.95473 -1.09664,1.48342zM78.34881,161.25l4.31535,-30.20747c2.15036,0.80879 4.52132,0.80879 6.67167,0l4.31535,30.20747zM92.95274,115.94888l12.21905,-8.14599l7.36528,2.67823l-17.25714,10.35426c-0.18611,-1.20331 -0.60403,-2.35904 -1.23057,-3.40309c-0.31684,-0.52869 -0.68409,-1.02547 -1.09663,-1.48341zM94.28796,127.6989l24.75398,-14.85236l23.92694,8.70067l-46.40309,22.09667zM161.25,161.25h-62.16902l-1.71889,-12.03216l52.69536,-25.09304l4.11654,1.49696c4.24209,1.55282 7.06652,5.58537 7.07601,10.10273z"></path></g></g></svg>